<?xml version="1.0" encoding="utf-8"?>
<!-- Generator: Adobe Illustrator 17.1.0, SVG Export Plug-In . SVG Version: 6.00 Build 0)  -->
<!DOCTYPE svg PUBLIC "-//W3C//DTD SVG 1.1//EN" "http://www.w3.org/Graphics/SVG/1.1/DTD/svg11.dtd">
<svg version="1.1" id="Layer_1" xmlns="http://www.w3.org/2000/svg" xmlns:xlink="http://www.w3.org/1999/xlink" x="0px" y="0px"
	 viewBox="0 0 670.5 843.8" enable-background="new 0 0 670.5 843.8" xml:space="preserve">
<radialGradient id="SVGID_1_" cx="252.0641" cy="20906.873" r="290.0749" gradientTransform="matrix(1.1247 0 0 0.2961 9.113 -5447.1504)" gradientUnits="userSpaceOnUse">
	<stop  offset="0" style="stop-color:#999999"/>
	<stop  offset="0.2202" style="stop-color:#B6B6B6;stop-opacity:0.7798"/>
	<stop  offset="0.5615" style="stop-color:#DEDEDE;stop-opacity:0.4385"/>
	<stop  offset="0.8334" style="stop-color:#F6F6F6;stop-opacity:0.1666"/>
	<stop  offset="1" style="stop-color:#FFFFFF;stop-opacity:0"/>
</radialGradient>
<ellipse fill="url(#SVGID_1_)" cx="306.1" cy="746.8" rx="379" ry="97"/>
<path fill="#FFFFFF" d="M478.1,340.6c-10.2,3.4-19.9,7.3-29.3,11.6c6.3-7.6,12.4-15.6,18.1-24.1c36.3-54.1,38.9-100.9,18.3-135
	c-38.8-64.2-131-28.9-151.1,13.7C314,164,221.8,128.7,183,193c-20.7,34.2-18.1,81,18.3,135c5.7,8.5,11.8,16.6,18.1,24.1
	c-9.3-4.3-19.1-8.2-29.3-11.6c-61.8-20.7-107.6-10.7-135,18.3c-51.6,54.5,6.9,134,53.4,142c-35.8,30.7-45.3,128.9,26.9,149.3
	c38.4,10.8,82.9-4.1,125.3-53.5c37.8-43.9,58.3-95.3,67.7-122.7c14.9,176.4-96.9,249.7-96.9,249.7s17.4,16.4,34.7,23.1
	c80.8-88.5,85.4-196.3,80.7-253.6c11.3,28.5,30.4,68.4,60.6,103.5c42.5,49.4,86.9,64.3,125.3,53.5c72.2-20.4,62.7-118.6,26.9-149.3
	c46.5-8,105-87.5,53.4-142C585.7,329.8,539.8,319.9,478.1,340.6z"/>
</svg>
